GIL03_free4_RRA_states
nRows=8
nColumns=47

# SIMM Motion File Header:
name GIL03_free4_RRA_states
datacolumns 47
datarows 8
otherdata 1
range 0.78733000000000053000 0.79083000000000048000
endheader
time	pelvis_tx	pelvis_ty	pelvis_tz	pelvis_tilt	pelvis_list	pelvis_rotation	hip_flexion_r	hip_adduction_r	hip_rotation_r	knee_angle_r	ankle_angle_r	subtalar_angle_r	mtp_angle_r	hip_flexion_l	hip_adduction_l	hip_rotation_l	knee_angle_l	ankle_angle_l	subtalar_angle_l	mtp_angle_l	lumbar_extension	lumbar_bending	lumbar_rotation	pelvis_tx_u	pelvis_ty_u	pelvis_tz_u	pelvis_tilt_u	pelvis_list_u	pelvis_rotation_u	hip_flexion_r_u	hip_adduction_r_u	hip_rotation_r_u	knee_angle_r_u	ankle_angle_r_u	subtalar_angle_r_u	mtp_angle_r_u	hip_flexion_l_u	hip_adduction_l_u	hip_rotation_l_u	knee_angle_l_u	ankle_angle_l_u	subtalar_angle_l_u	mtp_angle_l_u	lumbar_extension_u	lumbar_bending_u	lumbar_rotation_u
      0.78733000000000053000	      0.82736300619319003000	      0.89805819421499455000	     -0.25931488106214073000	      3.13923338184911580000	     -0.28639055305571132000	     -5.54137849096342010000	     16.52506120503250400000	     -0.03388422542323207800	      8.30668387177514410000	    -49.48018850168527600000	      7.34308356366841770000	     -0.00000000000029508626	      0.00000000000021307256	      4.09001898800564060000	      1.94187002501985200000	      3.15590216773035830000	    -19.01379755314784600000	     11.61053568633915300000	     -0.00000000000008559057	     -0.00000000000000393539	    -14.34483696798108300000	      1.50848882109312130000	     11.28344809540565800000	      1.11086707414840920000	      0.05576857451592540800	     -0.09421993588293999000	      5.56888721652495810000	    -19.17728879756081300000	     16.14339346081072400000	     97.18799418112166700000	     14.98196519010002300000	     19.66364922048283500000	    205.68204068124962000000	      3.55708211914987200000	     -0.00000000000106620136	      0.00000000000074349650	   -121.55032498221732000000	     -8.49875309243959440000	    -23.60563927660189200000	     61.75871183055473800000	     51.41652424580904300000	     -0.00000000000031574080	      0.00000000000002136918	    -27.65836713350852000000	     45.38301183969668500000	    -36.58544370621584100000
      0.78783000000000047000	      0.82791851000642580000	      0.89808570962720780000	     -0.25936204241812055000	      3.14205788747714050000	     -0.29594585059624712000	     -5.53322751160145820000	     16.57344910769414200000	     -0.02652030588020724500	      8.31641751652841950000	    -49.37700508928711000000	      7.34475536338573500000	     -0.00000000000029561937	      0.00000000000021344479	      4.02922120895034470000	      1.93764761358587420000	      3.14412899477769870000	    -18.98294742451659500000	     11.63625248433605800000	     -0.00000000000008574939	     -0.00000000000000392029	    -14.35869815665849600000	      1.53114813074970660000	     11.26518273017223100000	      1.11114929131768300000	      0.05429304024251552900	     -0.09442540070805047200	      5.72892702278973860000	    -19.04358608437570800000	     16.46044409586082600000	     96.36338707669790400000	     14.47365525908064400000	     19.27208023900653400000	    207.05171504586460000000	      3.12971690240488250000	     -0.00000000000106502819	      0.00000000000074397161	   -121.64070692476466000000	     -8.39060446058606500000	    -23.48586250264906600000	     61.64173769883855400000	     51.45062962614988300000	     -0.00000000000032952175	      0.00000000000006960876	    -27.78590295225258100000	     45.25394262337243100000	    -36.47603017769412800000
      0.78833000000000053000	      0.82847415659459234000	      0.89811248721593950000	     -0.25940930636870330000	      3.14496209871824610000	     -0.30543382144937758000	     -5.52491813410569940000	     16.62142436715922100000	     -0.01941062721227947800	      8.32595711109079770000	    -49.27313668394788200000	      7.34621287768123480000	     -0.00000000000029615204	      0.00000000000021381711	      3.96837836895714920000	      1.93347971249032140000	      3.13241749985618870000	    -18.95215589845614400000	     11.66198653054748600000	     -0.00000000000008591424	     -0.00000000000000388671	    -14.37262238455148000000	      1.55374247579208860000	     11.24697205872738500000	      1.11143816867139210000	      0.05281727197571287100	     -0.09463030042283651600	      5.88770570449368070000	    -18.90797740711616000000	     16.77697092410961600000	     95.53743128980626400000	     13.96500368130059800000	     18.88746618757116000000	    208.42200387691364000000	      2.69993487596593520000	     -0.00000000000106534379	      0.00000000000074440336	   -121.73056151675438000000	     -8.28070437437831510000	    -23.35891813289194400000	     61.52426570969495100000	     51.48602257197035200000	     -0.00000000000032581510	      0.00000000000005001092	    -27.91052032149199700000	     45.12314603485119600000	    -36.36665579780519400000
      0.78883000000000048000	      0.82902994927714879000	      0.89813852686239803000	     -0.25945667260244437000	      3.14794537771596340000	     -0.31485351502857639000	     -5.51645063797166730000	     16.66898632759246700000	     -0.01255534713183506000	      8.33530613328636250000	    -49.16858299916439300000	      7.34745488193609830000	     -0.00000000000029668451	      0.00000000000021418938	      3.90749074171035590000	      1.92936719359424670000	      3.12077125402400360000	    -18.92142324497497100000	     11.68773872348230100000	     -0.00000000000008607774	     -0.00000000000000385695	    -14.38660818470084400000	      1.57627098997433880000	     11.22881607249671800000	      1.11173365803008360000	      0.05134128481701244500	     -0.09483450309012977900	      6.04519142259663590000	    -18.77049104577593000000	     17.09291339419486600000	     94.71020819429297400000	     13.45608315715046500000	     18.50975608415195200000	    209.79280843299102000000	      2.26765543798634720000	     -0.00000000000106541761	      0.00000000000074470996	   -121.81985045324014000000	     -8.16909812252498750000	    -23.22490995990767700000	     61.40627698975600200000	     51.52271511076811800000	     -0.00000000000032631352	      0.00000000000006090326	    -28.03218388846760300000	     44.99062869813335700000	    -36.25729262176677300000
      0.78933000000000053000	      0.82958589134682470000	      0.89816382846639464000	     -0.25950414073313816000	      3.15100706939399490000	     -0.32420400424927648000	     -5.50782532866766860000	     16.71613437764999300000	     -0.00595457676377892690	      8.34446800939264750000	    -49.06334380591466300000	      7.34848010342375880000	     -0.00000000000029721713	      0.00000000000021456112	      3.84655861884515100000	      1.92531089122605990000	      3.10919374898123070000	    -18.89074971031603000000	     11.71350946501831200000	     -0.00000000000008624036	     -0.00000000000000382996	    -14.40065407030151000000	      1.59873281866410430000	     11.21071476944025500000	      1.11203571226216510000	      0.04986509327799731200	     -0.09503787359189264100	      6.20135245893021470000	    -18.63115539528826000000	     17.40820775221486700000	     93.88179989972977100000	     12.94696702479536700000	     18.13889973683813000000	    211.16402890553022000000	      1.83279836221170990000	     -0.00000000000106485608	      0.00000000000074315316	   -121.90853724891369000000	     -8.05583085753862170000	    -23.08394746822655500000	     61.28775535776792100000	     51.56072389475445300000	     -0.00000000000032618217	      0.00000000000006275271	    -28.15085847260435200000	     44.85639658473674300000	    -36.14790958407986200000
      0.78983000000000048000	      0.83014198607537815000	      0.89818839192336730000	     -0.25955171031487878000	      3.15414650421007540000	     -0.33348436707232293000	     -5.49904254825706570000	     16.76286794357621100000	      0.00039159934814751273	      8.35344616550048970000	    -48.95741891803789500000	      7.34928723814621780000	     -0.00000000000029774983	      0.00000000000021493295	      3.78558231118355910000	      1.92131163182358680000	      3.09768844749305880000	    -18.86013558155677200000	     11.73929966825985200000	     -0.00000000000008640453	     -0.00000000000000379192	    -14.41475853931970600000	      1.62112710181277750000	     11.19266817109162900000	      1.11234428197646060000	      0.04838870970726708700	     -0.09524027670340250200	      6.35615753909037460000	    -18.48999980672060400000	     17.72279329899249900000	     93.05228915407273900000	     12.43772827513292400000	     17.77483875087300200000	    212.53556095114030000000	      1.39528892691645150000	     -0.00000000000106576211	      0.00000000000074525563	   -121.99658371580067000000	     -7.94094920782302440000	    -22.93613983514258300000	     61.16868236422187300000	     51.60005813836915700000	     -0.00000000000032894745	      0.00000000000009413796	    -28.26650981312035400000	     44.72045611420774900000	    -36.03847741427978200000
      0.79033000000000053000	      0.83069823670671672000	      0.89821221714575128000	     -0.25959938082560102000	      3.15736299577561570000	     -0.34269370562056001000	     -5.49010266407411860000	     16.80918649681292000000	      0.00648314324082531310	      8.36224397099272570000	    -48.85080821032860900000	      7.34987493782477500000	     -0.00000000000029828244	      0.00000000000021530513	      3.72456214790856550000	      1.91737020335228330000	      3.08625873091534950000	    -18.82958112251386500000	     11.76510974644431900000	     -0.00000000000008656816	     -0.00000000000000374744	    -14.42892007057778200000	      1.64345299099533040000	     11.17467630562335200000	      1.11265931882830920000	      0.04691214582171549700	     -0.09544157414160849000	      6.50957547581292670000	    -18.34705379744849200000	     18.03660624125171100000	     92.22175948794161100000	     11.92844054730049700000	     17.41751528991877900000	    213.90729911969083000000	      0.95505287882156797000	     -0.00000000000106488177	      0.00000000000074597048	   -122.08395341372825000000	     -7.82449969457244170000	    -22.78160179284048700000	     61.04904218457701100000	     51.64073220469714400000	     -0.00000000000032345893	      0.00000000000008380748	    -28.37910378664073000000	     44.58281313160324500000	    -35.92896380755169600000
      0.79083000000000048000	      0.83125464646369118000	      0.89823530404043506000	     -0.25964715168172936000	      3.16065584340457040000	     -0.35183112750712398000	     -5.48100608082829850000	     16.85508954709041900000	      0.01232004383723362900	      8.37086479266584680000	    -48.74351160259571000000	      7.35024182502175270000	     -0.00000000000029881489	      0.00000000000021567797	      3.66349847691084030000	      1.91348738546880790000	      3.07490794842347800000	    -18.79908663695242100000	     11.79094062481334100000	     -0.00000000000008672843	     -0.00000000000000370880	    -14.44313712803565000000	      1.66570963220669470000	     11.15673922594771900000	      1.11298077225152500000	      0.04543541123239956000	     -0.09564162739663148400	      6.66157555982127030000	    -18.20234778991156700000	     18.34958573023098100000	     91.39029502835124700000	     11.41917712184688000000	     17.06686355108096700000	    215.27913346803763000000	      0.51202137546698123000	     -0.00000000000106469935	      0.00000000000074359435	   -122.17060826845893000000	     -7.70653028460680640000	    -22.62044790282024200000	     60.92881679765596900000	     51.68275254174556500000	     -0.00000000000032424305	      0.00000000000009305177	    -28.48860722121609600000	     44.44347385116798000000	    -35.81933816535884300000
